<svg xmlns="http://www.w3.org/2000/svg" width="12.713" height="14" viewBox="0 0 12.713 14"><defs><style>.a{fill:#989898;}</style></defs><g transform="translate(0 5.791)"><path class="a" d="M34.393,211.786H25.384a1.855,1.855,0,0,0-1.852,1.852v4.5a1.855,1.855,0,0,0,1.852,1.852h9.008a1.855,1.855,0,0,0,1.852-1.852v-4.5A1.855,1.855,0,0,0,34.393,211.786Zm.721,6.357a.722.722,0,0,1-.721.721H25.384a.722.722,0,0,1-.721-.721v-4.5a.722.722,0,0,1,.721-.721h9.008a.722.722,0,0,1,.721.721Z" transform="translate(-23.532 -211.786)"/></g><g transform="translate(2.574)"><path class="a" d="M121.442,0a3.787,3.787,0,0,0-3.783,3.783V6.357a.566.566,0,0,0,1.131,0V3.783a2.652,2.652,0,1,1,5.3,0V6.357a.566.566,0,0,0,1.131,0V3.783A3.787,3.787,0,0,0,121.442,0Z" transform="translate(-117.659)"/></g></svg>